{
  "accessors": [
    {
      "bufferView": 2,
      "componentType": 5126,
      "count": 233,
      "max": [
        -1570.4488525390625,
        87.73028564453125,
        -2335.2099609375
      ],
      "min": [
        -1619.1787109375,
        1.1771485805511475,
        -2386.76904296875
      ],
      "type": "VEC3"
    },
    {
      "bufferView": 2,
      "byteOffset": 2796,
      "componentType": 5126,
      "count": 233,
      "max": [
        0.7882934212684631,
        1.0,
        0.7741481065750122
      ],
      "min": [
        -0.7883105278015137,
        -1.0,
        -0.774147093296051
      ],
      "type": "VEC3"
    },
    {
      "bufferView": 3,
      "componentType": 5126,
      "count": 233,
      "max": [
        0.7883913516998291,
        0.9096786379814148,
        0.770034909248352,
        1.0
      ],
      "min": [
        -0.788307785987854,
        -0.9771855473518372,
        -0.7707772254943848,
        1.0
      ],
      "type": "VEC4"
    },
    {
      "bufferView": 1,
      "componentType": 5126,
      "count": 233,
      "max": [
        0.5795984864234924,
        0.8516285419464111
      ],
      "min": [
        0.2186490297317505,
        0.2631276547908783
      ],
      "type": "VEC2"
    },
    {
      "bufferView": 0,
      "componentType": 5125,
      "count": 540,
      "type": "SCALAR"
    },
    {
      "bufferView": 2,
      "byteOffset": 5592,
      "componentType": 5126,
      "count": 108,
      "max": [
        -1667.436279296875,
        250.00001525878906,
        -1833.72119140625
      ],
      "min": [
        -2067.436279296875,
        0.0,
        -1839.402099609375
      ],
      "type": "VEC3"
    },
    {
      "bufferView": 2,
      "byteOffset": 6888,
      "componentType": 5126,
      "count": 108,
      "max": [
        1.0,
        1.0,
        1.0
      ],
      "min": [
        -1.0,
        -1.0,
        -1.0
      ],
      "type": "VEC3"
    },
    {
      "bufferView": 3,
      "byteOffset": 3728,
      "componentType": 5126,
      "count": 108,
      "max": [
        1.0,
        0.0001362707989756018,
        1.0,
        1.0
      ],
      "min": [
        -1.0,
        -0.0001527964195702225,
        -1.0,
        1.0
      ],
      "type": "VEC4"
    },
    {
      "bufferView": 1,
      "byteOffset": 1864,
      "componentType": 5126,
      "count": 108,
      "max": [
        2.0406670570373535,
        0.9532201886177063
      ],
      "min": [
        1.0014454126358032,
        0.17696011066436768
      ],
      "type": "VEC2"
    },
    {
      "bufferView": 0,
      "byteOffset": 2160,
      "componentType": 5125,
      "count": 312,
      "type": "SCALAR"
    },
    {
      "bufferView": 2,
      "byteOffset": 8184,
      "componentType": 5126,
      "count": 235,
      "max": [
        -1885.633056640625,
        204.03604125976563,
        -1837.4522705078125
      ],
      "min": [
        -2039.16064453125,
        0.0,
        -1846.983154296875
      ],
      "type": "VEC3"
    },
    {
      "bufferView": 2,
      "byteOffset": 11004,
      "componentType": 5126,
      "count": 235,
      "max": [
        1.0,
        1.0,
        0.0011017407523468137
      ],
      "min": [
        -1.0,
        -1.0,
        -1.0
      ],
      "type": "VEC3"
    },
    {
      "bufferView": 3,
      "byteOffset": 5456,
      "componentType": 5126,
      "count": 235,
      "max": [
        1.0,
        1.0,
        1.0,
        1.0
      ],
      "min": [
        -1.0,
        -1.0,
        -0.9999997019767761,
        1.0
      ],
      "type": "VEC4"
    },
    {
      "bufferView": 1,
      "byteOffset": 2728,
      "componentType": 5126,
      "count": 235,
      "max": [
        0.6318399906158447,
        0.993010401725769
      ],
      "min": [
        0.004633843898773193,
        0.05815480276942253
      ],
      "type": "VEC2"
    },
    {
      "bufferView": 0,
      "byteOffset": 3408,
      "componentType": 5125,
      "count": 504,
      "type": "SCALAR"
    },
    {
      "bufferView": 2,
      "byteOffset": 13824,
      "componentType": 5126,
      "count": 108,
      "max": [
        -873.55859375,
        252.8673095703125,
        -1830.34423828125
      ],
      "min": [
        -1273.505859375,
        2.8673007488250732,
        -1836.025146484375
      ],
      "type": "VEC3"
    },
    {
      "bufferView": 2,
      "byteOffset": 15120,
      "componentType": 5126,
      "count": 108,
      "max": [
        1.0,
        1.0,
        1.0
      ],
      "min": [
        -1.0,
        -1.0,
        -1.0
      ],
      "type": "VEC3"
    },
    {
      "bufferView": 3,
      "byteOffset": 9216,
      "componentType": 5126,
      "count": 108,
      "max": [
        1.0,
        0.00013751728693023324,
        1.0,
        -1.0
      ],
      "min": [
        -1.0,
        -0.0001571519096614793,
        -1.0,
        -1.0
      ],
      "type": "VEC4"
    },
    {
      "bufferView": 1,
      "byteOffset": 4608,
      "componentType": 5126,
      "count": 108,
      "max": [
        2.092381238937378,
        0.9531948566436768
      ],
      "min": [
        1.0018187761306763,
        0.17631585896015167
      ],
      "type": "VEC2"
    },
    {
      "bufferView": 0,
      "byteOffset": 5424,
      "componentType": 5125,
      "count": 312,
      "type": "SCALAR"
    },
    {
      "bufferView": 2,
      "byteOffset": 16416,
      "componentType": 5126,
      "count": 235,
      "max": [
        -901.8306884765625,
        206.90333557128906,
        -1834.0753173828125
      ],
      "min": [
        -1055.28857421875,
        2.8673007488250732,
        -1843.606201171875
      ],
      "type": "VEC3"
    },
    {
      "bufferView": 2,
      "byteOffset": 19236,
      "componentType": 5126,
      "count": 235,
      "max": [
        1.0,
        1.0,
        0.0011017692741006613
      ],
      "min": [
        -1.0,
        -1.0,
        -1.0
      ],
      "type": "VEC3"
    },
    {
      "bufferView": 3,
      "byteOffset": 10944,
      "componentType": 5126,
      "count": 235,
      "max": [
        1.0,
        1.0,
        1.0,
        -1.0
      ],
      "min": [
        -1.0,
        -1.0,
        -0.9999997019767761,
        -1.0
      ],
      "type": "VEC4"
    },
    {
      "bufferView": 1,
      "byteOffset": 5472,
      "componentType": 5126,
      "count": 235,
      "max": [
        0.6318399906158447,
        0.993010401725769
      ],
      "min": [
        0.004633843898773193,
        0.05815480276942253
      ],
      "type": "VEC2"
    },
    {
      "bufferView": 0,
      "byteOffset": 6672,
      "componentType": 5125,
      "count": 504,
      "type": "SCALAR"
    },
    {
      "bufferView": 2,
      "byteOffset": 22056,
      "componentType": 5126,
      "count": 365,
      "max": [
        -1189.9443359375,
        103.04824829101563,
        -2084.844482421875
      ],
      "min": [
        -1772.744873046875,
        2.2750205993652344,
        -2294.994140625
      ],
      "type": "VEC3"
    },
    {
      "bufferView": 2,
      "byteOffset": 26436,
      "componentType": 5126,
      "count": 365,
      "max": [
        1.0,
        1.0,
        1.0
      ],
      "min": [
        -1.0,
        -1.0,
        -0.9980690479278564
      ],
      "type": "VEC3"
    },
    {
      "bufferView": 3,
      "byteOffset": 14704,
      "componentType": 5126,
      "count": 365,
      "max": [
        0.9999984502792358,
        0.9992380738258362,
        0.9984754323959351,
        1.0
      ],
      "min": [
        -1.0,
        -0.9976309537887573,
        -0.9875399470329285,
        1.0
      ],
      "type": "VEC4"
    },
    {
      "bufferView": 1,
      "byteOffset": 7352,
      "componentType": 5126,
      "count": 365,
      "max": [
        1.6757862567901611,
        0.5928452610969543
      ],
      "min": [
        -2.4007492065429688,
        -0.8166300654411316
      ],
      "type": "VEC2"
    },
    {
      "bufferView": 0,
      "byteOffset": 8688,
      "componentType": 5125,
      "count": 684,
      "type": "SCALAR"
    },
    {
      "bufferView": 2,
      "byteOffset": 30816,
      "componentType": 5126,
      "count": 136,
      "max": [
        -1188.87353515625,
        94.60941314697266,
        -2084.844482421875
      ],
      "min": [
        -1773.815673828125,
        2.0769786834716797,
        -2289.96337890625
      ],
      "type": "VEC3"
    },
    {
      "bufferView": 2,
      "byteOffset": 32448,
      "componentType": 5126,
      "count": 136,
      "max": [
        0.7185623049736023,
        1.0,
        0.8691449761390686
      ],
      "min": [
        -0.7185622453689575,
        -0.9999523162841797,
        -0.9984936714172363
      ],
      "type": "VEC3"
    },
    {
      "bufferView": 3,
      "byteOffset": 20544,
      "componentType": 5126,
      "count": 136,
      "max": [
        0.999999463558197,
        0.7086798548698425,
        0.7839311957359314,
        1.0
      ],
      "min": [
        -0.999992847442627,
        -0.7085204124450684,
        -0.7923096418380737,
        1.0
      ],
      "type": "VEC4"
    },
    {
      "bufferView": 1,
      "byteOffset": 10272,
      "componentType": 5126,
      "count": 136,
      "max": [
        0.7800277471542358,
        0.7942197918891907
      ],
      "min": [
        0.005032598972320557,
        0.009759154170751572
      ],
      "type": "VEC2"
    },
    {
      "bufferView": 0,
      "byteOffset": 11424,
      "componentType": 5125,
      "count": 252,
      "type": "SCALAR"
    },
    {
      "bufferView": 2,
      "byteOffset": 34080,
      "componentType": 5126,
      "count": 144,
      "max": [
        -1405.180908203125,
        248.5651397705078,
        -2287.71337890625
      ],
      "min": [
        -1420.65771484375,
        227.4150848388672,
        -2292.14013671875
      ],
      "type": "VEC3"
    },
    {
      "bufferView": 2,
      "byteOffset": 35808,
      "componentType": 5126,
      "count": 144,
      "max": [
        1.0,
        1.0,
        0.0
      ],
      "min": [
        -1.0,
        -1.0,
        -1.0
      ],
      "type": "VEC3"
    },
    {
      "bufferView": 3,
      "byteOffset": 22720,
      "componentType": 5126,
      "count": 144,
      "max": [
        0.00019080244237557054,
        0.0007886962266638875,
        1.0,
        1.0
      ],
      "min": [
        -0.9999998211860657,
        -1.0,
        -1.0,
        1.0
      ],
      "type": "VEC4"
    },
    {
      "bufferView": 1,
      "byteOffset": 11360,
      "componentType": 5126,
      "count": 144,
      "max": [
        0.6762212514877319,
        0.9101044535636902
      ],
      "min": [
        0.015148423612117767,
        0.6905915141105652
      ],
      "type": "VEC2"
    },
    {
      "bufferView": 0,
      "byteOffset": 12432,
      "componentType": 5125,
      "count": 225,
      "type": "SCALAR"
    },
    {
      "bufferView": 2,
      "byteOffset": 37536,
      "componentType": 5126,
      "count": 167,
      "max": [
        -1422.475830078125,
        243.27769470214844,
        -2287.71337890625
      ],
      "min": [
        -1435.15185546875,
        227.0580291748047,
        -2292.14013671875
      ],
      "type": "VEC3"
    },
    {
      "bufferView": 2,
      "byteOffset": 39540,
      "componentType": 5126,
      "count": 167,
      "max": [
        0.9891291260719299,
        1.0,
        0.0
      ],
      "min": [
        -1.0,
        -1.0,
        -1.0
      ],
      "type": "VEC3"
    },
    {
      "bufferView": 3,
      "byteOffset": 25024,
      "componentType": 5126,
      "count": 167,
      "max": [
        0.00018171941337641329,
        0.00018825108418241143,
        0.9999850392341614,
        1.0
      ],
      "min": [
        -0.9999850392341614,
        -0.005498195067048073,
        -1.0,
        1.0
      ],
      "type": "VEC4"
    },
    {
      "bufferView": 1,
      "byteOffset": 12512,
      "componentType": 5126,
      "count": 167,
      "max": [
        0.7243150472640991,
        0.9651281833648682
      ],
      "min": [
        0.0629100352525711,
        0.7173523306846619
      ],
      "type": "VEC2"
    },
    {
      "bufferView": 0,
      "byteOffset": 13332,
      "componentType": 5125,
      "count": 234,
      "type": "SCALAR"
    },
    {
      "bufferView": 2,
      "byteOffset": 41544,
      "componentType": 5126,
      "count": 154,
      "max": [
        -1438.86572265625,
        243.27769470214844,
        -2287.71337890625
      ],
      "min": [
        -1450.869873046875,
        227.0580291748047,
        -2292.14013671875
      ],
      "type": "VEC3"
    },
    {
      "bufferView": 2,
      "byteOffset": 43392,
      "componentType": 5126,
      "count": 154,
      "max": [
        0.9886181950569153,
        0.9978834986686707,
        0.0
      ],
      "min": [
        -1.0,
        -0.9954802393913269,
        -1.0
      ],
      "type": "VEC3"
    },
    {
      "bufferView": 3,
      "byteOffset": 27696,
      "componentType": 5126,
      "count": 154,
      "max": [
        9.044696344062686e-05,
        0.013088704086840153,
        1.0,
        1.0
      ],
      "min": [
        -0.9999147057533264,
        -3.602362266974524e-05,
        -1.0,
        1.0
      ],
      "type": "VEC4"
    },
    {
      "bufferView": 1,
      "byteOffset": 13848,
      "componentType": 5126,
      "count": 154,
      "max": [
        0.5328280329704285,
        0.9023972153663635
      ],
      "min": [
        0.1148509532213211,
        0.8025297522544861
      ],
      "type": "VEC2"
    },
    {
      "bufferView": 0,
      "byteOffset": 14268,
      "componentType": 5125,
      "count": 228,
      "type": "SCALAR"
    },
    {
      "bufferView": 2,
      "byteOffset": 45240,
      "componentType": 5126,
      "count": 167,
      "max": [
        -1453.7919921875,
        243.27769470214844,
        -2287.71337890625
      ],
      "min": [
        -1466.468017578125,
        227.0580291748047,
        -2292.14013671875
      ],
      "type": "VEC3"
    },
    {
      "bufferView": 2,
      "byteOffset": 47244,
      "componentType": 5126,
      "count": 167,
      "max": [
        0.9891291260719299,
        1.0,
        0.0
      ],
      "min": [
        -1.0,
        -1.0,
        -1.0
      ],
      "type": "VEC3"
    },
    {
      "bufferView": 3,
      "byteOffset": 30160,
      "componentType": 5126,
      "count": 167,
      "max": [
        0.0001356561842840165,
        0.0001807648950489238,
        0.00018457324767950922,
        1.0
      ],
      "min": [
        -1.0,
        -0.0032448568381369114,
        -1.0,
        1.0
      ],
      "type": "VEC4"
    },
    {
      "bufferView": 1,
      "byteOffset": 15080,
      "componentType": 5126,
      "count": 167,
      "max": [
        0.7466983199119568,
        0.9942241311073303
      ],
      "min": [
        0.16770784556865692,
        0.7022662162780762
      ],
      "type": "VEC2"
    },
    {
      "bufferView": 0,
      "byteOffset": 15180,
      "componentType": 5125,
      "count": 234,
      "type": "SCALAR"
    },
    {
      "bufferView": 2,
      "byteOffset": 49248,
      "componentType": 5126,
      "count": 177,
      "max": [
        -1471.410888671875,
        243.27769470214844,
        -2287.71337890625
      ],
      "min": [
        -1485.429931640625,
        221.77029418945313,
        -2292.14013671875
      ],
      "type": "VEC3"
    },
    {
      "bufferView": 2,
      "byteOffset": 51372,
      "componentType": 5126,
      "count": 177,
      "max": [
        1.0,
        1.0,
        0.0
      ],
      "min": [
        -1.0,
        -1.0,
        -1.0
      ],
      "type": "VEC3"
    },
    {
      "bufferView": 3,
      "byteOffset": 32832,
      "componentType": 5126,
      "count": 177,
      "max": [
        1.0,
        1.0,
        1.0,
        1.0
      ],
      "min": [
        -1.0,
        -1.0,
        -1.0,
        1.0
      ],
      "type": "VEC4"
    },
    {
      "bufferView": 1,
      "byteOffset": 16416,
      "componentType": 5126,
      "count": 177,
      "max": [
        0.8511648178100586,
        0.9903721809387207
      ],
      "min": [
        0.2111753523349762,
        0.8120154142379761
      ],
      "type": "VEC2"
    },
    {
      "bufferView": 0,
      "byteOffset": 16116,
      "componentType": 5125,
      "count": 240,
      "type": "SCALAR"
    },
    {
      "bufferView": 2,
      "byteOffset": 53496,
      "componentType": 5126,
      "count": 4,
      "max": [
        -1474.24658203125,
        231.13327026367188,
        -2287.71337890625
      ],
      "min": [
        -1476.358154296875,
        229.6844940185547,
        -2292.14013671875
      ],
      "type": "VEC3"
    },
    {
      "bufferView": 2,
      "byteOffset": 53544,
      "componentType": 5126,
      "count": 4,
      "max": [
        -0.565759003162384,
        0.8245706558227539,
        0.0
      ],
      "min": [
        -0.565759003162384,
        0.8245706558227539,
        0.0
      ],
      "type": "VEC3"
    },
    {
      "bufferView": 3,
      "byteOffset": 35664,
      "componentType": 5126,
      "count": 4,
      "max": [
        -0.8245706558227539,
        -0.565759003162384,
        0.00015704981342423707,
        1.0
      ],
      "min": [
        -0.8245706558227539,
        -0.565759003162384,
        0.00015698745846748352,
        1.0
      ],
      "type": "VEC4"
    },
    {
      "bufferView": 1,
      "byteOffset": 17832,
      "componentType": 5126,
      "count": 4,
      "max": [
        0.7745097875595093,
        0.9682889580726624
      ],
      "min": [
        0.7669178247451782,
        0.9551662802696228
      ],
      "type": "VEC2"
    },
    {
      "bufferView": 0,
      "byteOffset": 17076,
      "componentType": 5125,
      "count": 6,
      "type": "SCALAR"
    },
    {
      "bufferView": 2,
      "byteOffset": 53592,
      "componentType": 5126,
      "count": 4,
      "max": [
        -1474.24658203125,
        238.234130859375,
        -2287.71337890625
      ],
      "min": [
        -1474.24658203125,
        231.13327026367188,
        -2292.14013671875
      ],
      "type": "VEC3"
    },
    {
      "bufferView": 2,
      "byteOffset": 53640,
      "componentType": 5126,
      "count": 4,
      "max": [
        -1.0,
        0.0,
        0.0
      ],
      "min": [
        -1.0,
        0.0,
        0.0
      ],
      "type": "VEC3"
    },
    {
      "bufferView": 3,
      "byteOffset": 35728,
      "componentType": 5126,
      "count": 4,
      "max": [
        0.0,
        -1.0,
        6.230970029719174e-05,
        1.0
      ],
      "min": [
        0.0,
        -1.0,
        5.382428571465425e-05,
        1.0
      ],
      "type": "VEC4"
    },
    {
      "bufferView": 1,
      "byteOffset": 17864,
      "componentType": 5126,
      "count": 4,
      "max": [
        0.8031492233276367,
        0.9678009152412415
      ],
      "min": [
        0.782103419303894,
        0.9546801447868347
      ],
      "type": "VEC2"
    },
    {
      "bufferView": 0,
      "byteOffset": 17100,
      "componentType": 5125,
      "count": 6,
      "type": "SCALAR"
    },
    {
      "bufferView": 2,
      "byteOffset": 53688,
      "componentType": 5126,
      "count": 126,
      "max": [
        -1488.02001953125,
        246.02151489257813,
        -2287.71337890625
      ],
      "min": [
        -1496.83740234375,
        227.0580291748047,
        -2292.14013671875
      ],
      "type": "VEC3"
    },
    {
      "bufferView": 2,
      "byteOffset": 55200,
      "componentType": 5126,
      "count": 126,
      "max": [
        1.0,
        1.0,
        0.0
      ],
      "min": [
        -1.0,
        -1.0,
        -1.0
      ],
      "type": "VEC3"
    },
    {
      "bufferView": 3,
      "byteOffset": 35792,
      "componentType": 5126,
      "count": 126,
      "max": [
        0.00010862862836802378,
        0.03627544641494751,
        0.0007753890822641551,
        1.0
      ],
      "min": [
        -0.9993473291397095,
        -0.00010904466034844518,
        -1.0,
        1.0
      ],
      "type": "VEC4"
    },
    {
      "bufferView": 1,
      "byteOffset": 17896,
      "componentType": 5126,
      "count": 126,
      "max": [
        0.6040335893630981,
        0.9836129546165466
      ],
      "min": [
        0.2729169428348541,
        0.8054447770118713
      ],
      "type": "VEC2"
    },
    {
      "bufferView": 0,
      "byteOffset": 17124,
      "componentType": 5125,
      "count": 192,
      "type": "SCALAR"
    },
    {
      "bufferView": 2,
      "byteOffset": 56712,
      "componentType": 5126,
      "count": 20,
      "max": [
        -1500.67822265625,
        242.93467712402344,
        -2287.71337890625
      ],
      "min": [
        -1503.493408203125,
        227.4150848388672,
        -2292.14013671875
      ],
      "type": "VEC3"
    },
    {
      "bufferView": 2,
      "byteOffset": 56952,
      "componentType": 5126,
      "count": 20,
      "max": [
        1.0,
        1.0,
        0.0
      ],
      "min": [
        -1.0,
        -1.0,
        -1.0
      ],
      "type": "VEC3"
    },
    {
      "bufferView": 3,
      "byteOffset": 37808,
      "componentType": 5126,
      "count": 20,
      "max": [
        1.0,
        0.0,
        0.00013476383173838258,
        1.0
      ],
      "min": [
        -1.0,
        -1.0,
        -0.00014287076191976666,
        1.0
      ],
      "type": "VEC4"
    },
    {
      "bufferView": 1,
      "byteOffset": 18904,
      "componentType": 5126,
      "count": 20,
      "max": [
        0.3640432059764862,
        0.8423033356666565
      ],
      "min": [
        0.30135539174079895,
        0.8077115416526794
      ],
      "type": "VEC2"
    },
    {
      "bufferView": 0,
      "byteOffset": 17892,
      "componentType": 5125,
      "count": 30,
      "type": "SCALAR"
    },
    {
      "bufferView": 2,
      "byteOffset": 57192,
      "componentType": 5126,
      "count": 20,
      "max": [
        -1500.67822265625,
        248.5651397705078,
        -2287.71337890625
      ],
      "min": [
        -1503.493408203125,
        245.74990844726563,
        -2292.14013671875
      ],
      "type": "VEC3"
    },
    {
      "bufferView": 2,
      "byteOffset": 57432,
      "componentType": 5126,
      "count": 20,
      "max": [
        1.0,
        1.0,
        0.0
      ],
      "min": [
        -1.0,
        -1.0,
        -1.0
      ],
      "type": "VEC3"
    },
    {
      "bufferView": 3,
      "byteOffset": 38128,
      "componentType": 5126,
      "count": 20,
      "max": [
        0.00016354215040337294,
        0.00016358791617676616,
        1.0,
        1.0
      ],
      "min": [
        -1.0,
        0.0,
        -1.0,
        1.0
      ],
      "type": "VEC4"
    },
    {
      "bufferView": 1,
      "byteOffset": 19064,
      "componentType": 5126,
      "count": 20,
      "max": [
        0.3446647822856903,
        0.8753794431686401
      ],
      "min": [
        0.3100774586200714,
        0.8503454923629761
      ],
      "type": "VEC2"
    },
    {
      "bufferView": 0,
      "byteOffset": 18012,
      "componentType": 5125,
      "count": 30,
      "type": "SCALAR"
    },
    {
      "bufferView": 2,
      "byteOffset": 57672,
      "componentType": 5126,
      "count": 201,
      "max": [
        -1507.9365234375,
        243.27769470214844,
        -2287.71337890625
      ],
      "min": [
        -1522.74169921875,
        227.0580291748047,
        -2292.14013671875
      ],
      "type": "VEC3"
    },
    {
      "bufferView": 2,
      "byteOffset": 60084,
      "componentType": 5126,
      "count": 201,
      "max": [
        0.9935722351074219,
        0.98451167345047,
        0.0
      ],
      "min": [
        -0.9936599135398865,
        -0.9844488501548767,
        -1.0
      ],
      "type": "VEC3"
    },
    {
      "bufferView": 3,
      "byteOffset": 38448,
      "componentType": 5126,
      "count": 201,
      "max": [
        0.9844488501548767,
        0.9935722351074219,
        0.0032731895335018635,
        1.0
      ],
      "min": [
        -0.9891178011894226,
        -0.9936599135398865,
        -0.0002382627280894667,
        1.0
      ],
      "type": "VEC4"
    },
    {
      "bufferView": 1,
      "byteOffset": 19224,
      "componentType": 5126,
      "count": 201,
      "max": [
        0.8040615320205688,
        0.9901551008224487
      ],
      "min": [
        0.3702535033226013,
        0.8075757026672363
      ],
      "type": "VEC2"
    },
    {
      "bufferView": 0,
      "byteOffset": 18132,
      "componentType": 5125,
      "count": 288,
      "type": "SCALAR"
    },
    {
      "bufferView": 2,
      "byteOffset": 62496,
      "componentType": 5126,
      "count": 125,
      "max": [
        -1527.018798828125,
        243.27769470214844,
        -2287.71337890625
      ],
      "min": [
        -1539.708984375,
        227.4150848388672,
        -2292.14013671875
      ],
      "type": "VEC3"
    },
    {
      "bufferView": 2,
      "byteOffset": 63996,
      "componentType": 5126,
      "count": 125,
      "max": [
        1.0,
        1.0,
        0.0
      ],
      "min": [
        -1.0,
        -1.0,
        -1.0
      ],
      "type": "VEC3"
    },
    {
      "bufferView": 3,
      "byteOffset": 41664,
      "componentType": 5126,
      "count": 125,
      "max": [
        0.00025440080207772553,
        0.0002543762675486505,
        0.00016164229600690305,
        1.0
      ],
      "min": [
        -1.0,
        -0.0002543942246120423,
        -1.0,
        1.0
      ],
      "type": "VEC4"
    },
    {
      "bufferView": 1,
      "byteOffset": 20832,
      "componentType": 5126,
      "count": 125,
      "max": [
        0.7936689853668213,
        0.9264964461326599
      ],
      "min": [
        0.42218488454818726,
        0.68143230676651
      ],
      "type": "VEC2"
    },
    {
      "bufferView": 0,
      "byteOffset": 19284,
      "componentType": 5125,
      "count": 174,
      "type": "SCALAR"
    },
    {
      "bufferView": 2,
      "byteOffset": 65496,
      "componentType": 5126,
      "count": 65,
      "max": [
        -1410.51806640625,
        57.529388427734375,
        -2284.646240234375
      ],
      "min": [
        -1438.2919921875,
        34.000431060791016,
        -2289.57080078125
      ],
      "type": "VEC3"
    },
    {
      "bufferView": 2,
      "byteOffset": 66276,
      "componentType": 5126,
      "count": 65,
      "max": [
        0.9750070571899414,
        1.0,
        0.0
      ],
      "min": [
        -0.9750101566314697,
        -1.0,
        -1.0
      ],
      "type": "VEC3"
    },
    {
      "bufferView": 3,
      "byteOffset": 43664,
      "componentType": 5126,
      "count": 65,
      "max": [
        0.00016335239342879504,
        0.00015741732204332948,
        1.0,
        1.0
      ],
      "min": [
        -1.0,
        -0.00015528587391600013,
        -4.068118505529128e-05,
        1.0
      ],
      "type": "VEC4"
    },
    {
      "bufferView": 1,
      "byteOffset": 21832,
      "componentType": 5126,
      "count": 65,
      "max": [
        0.6513335704803467,
        0.9893313646316528
      ],
      "min": [
        0.006967455148696899,
        0.38172850012779236
      ],
      "type": "VEC2"
    },
    {
      "bufferView": 0,
      "byteOffset": 19980,
      "componentType": 5125,
      "count": 111,
      "type": "SCALAR"
    },
    {
      "bufferView": 2,
      "byteOffset": 67056,
      "componentType": 5126,
      "count": 100,
      "max": [
        -1440.251708984375,
        51.64723205566406,
        -2284.646240234375
      ],
      "min": [
        -1454.353515625,
        33.603206634521484,
        -2289.57080078125
      ],
      "type": "VEC3"
    },
    {
      "bufferView": 2,
      "byteOffset": 68256,
      "componentType": 5126,
      "count": 100,
      "max": [
        0.9999538064002991,
        1.0,
        0.0
      ],
      "min": [
        -1.0,
        -1.0,
        -1.0
      ],
      "type": "VEC3"
    },
    {
      "bufferView": 3,
      "byteOffset": 44704,
      "componentType": 5126,
      "count": 100,
      "max": [
        0.0002702540368773043,
        0.00028533453587442636,
        0.0001491061266278848,
        1.0
      ],
      "min": [
        -0.999959409236908,
        -0.009043991565704346,
        -1.0,
        1.0
      ],
      "type": "VEC4"
    },
    {
      "bufferView": 1,
      "byteOffset": 22352,
      "componentType": 5126,
      "count": 100,
      "max": [
        0.700153648853302,
        0.9698875546455383
      ],
      "min": [
        0.08649241924285889,
        0.6922112703323364
      ],
      "type": "VEC2"
    },
    {
      "bufferView": 0,
      "byteOffset": 20424,
      "componentType": 5125,
      "count": 234,
      "type": "SCALAR"
    },
    {
      "bufferView": 2,
      "byteOffset": 69456,
      "componentType": 5126,
      "count": 20,
      "max": [
        -1459.8525390625,
        59.103302001953125,
        -2284.646240234375
      ],
      "min": [
        -1462.984375,
        34.000431060791016,
        -2289.57080078125
      ],
      "type": "VEC3"
    },
    {
      "bufferView": 2,
      "byteOffset": 69696,
      "componentType": 5126,
      "count": 20,
      "max": [
        1.0,
        1.0,
        0.0
      ],
      "min": [
        -1.0,
        -1.0,
        -1.0
      ],
      "type": "VEC3"
    },
    {
      "bufferView": 3,
      "byteOffset": 46304,
      "componentType": 5126,
      "count": 20,
      "max": [
        0.0002368687855778262,
        0.0002450246538501233,
        1.0,
        1.0
      ],
      "min": [
        -1.0,
        0.0,
        -1.0,
        1.0
      ],
      "type": "VEC4"
    },
    {
      "bufferView": 1,
      "byteOffset": 23152,
      "componentType": 5126,
      "count": 20,
      "max": [
        0.17593517899513245,
        0.9906278848648071
      ],
      "min": [
        0.1374419629573822,
        0.8976590633392334
      ],
      "type": "VEC2"
    },
    {
      "bufferView": 0,
      "byteOffset": 21360,
      "componentType": 5125,
      "count": 30,
      "type": "SCALAR"
    },
    {
      "bufferView": 2,
      "byteOffset": 69936,
      "componentType": 5126,
      "count": 86,
      "max": [
        -1467.92724609375,
        51.64723205566406,
        -2284.646240234375
      ],
      "min": [
        -1481.28173828125,
        33.603206634521484,
        -2289.57080078125
      ],
      "type": "VEC3"
    },
    {
      "bufferView": 2,
      "byteOffset": 70968,
      "componentType": 5126,
      "count": 86,
      "max": [
        0.9999997615814209,
        0.9991958737373352,
        0.0
      ],
      "min": [
        -1.0,
        -0.9980313181877136,
        -1.0
      ],
      "type": "VEC3"
    },
    {
      "bufferView": 3,
      "byteOffset": 46624,
      "componentType": 5126,
      "count": 86,
      "max": [
        8.446684660157189e-05,
        0.014219073578715324,
        0.00012086333299521357,
        1.0
      ],
      "min": [
        -0.9998998045921326,
        -8.605875336797908e-05,
        -1.0,
        1.0
      ],
      "type": "VEC4"
    },
    {
      "bufferView": 1,
      "byteOffset": 23312,
      "componentType": 5126,
      "count": 86,
      "max": [
        0.6292089223861694,
        0.9680430889129639
      ],
      "min": [
        0.18296094238758087,
        0.7342888116836548
      ],
      "type": "VEC2"
    },
    {
      "bufferView": 0,
      "byteOffset": 21480,
      "componentType": 5125,
      "count": 228,
      "type": "SCALAR"
    },
    {
      "bufferView": 2,
      "byteOffset": 72000,
      "componentType": 5126,
      "count": 100,
      "max": [
        -1484.532470703125,
        51.64723205566406,
        -2284.646240234375
      ],
      "min": [
        -1501.002685546875,
        33.603206634521484,
        -2289.57080078125
      ],
      "type": "VEC3"
    },
    {
      "bufferView": 2,
      "byteOffset": 73200,
      "componentType": 5126,
      "count": 100,
      "max": [
        1.0,
        1.0,
        0.0
      ],
      "min": [
        -1.0,
        -1.0,
        -1.0
      ],
      "type": "VEC3"
    },
    {
      "bufferView": 3,
      "byteOffset": 48000,
      "componentType": 5126,
      "count": 100,
      "max": [
        4.8236906877718866e-05,
        4.8467922169948e-05,
        0.0018636822933331132,
        1.0
      ],
      "min": [
        -0.9891184568405151,
        -0.14714911580085754,
        -1.0,
        1.0
      ],
      "type": "VEC4"
    },
    {
      "bufferView": 1,
      "byteOffset": 24000,
      "componentType": 5126,
      "count": 100,
      "max": [
        0.5817996263504028,
        0.9659560918807983
      ],
      "min": [
        0.2310742288827896,
        0.8020930886268616
      ],
      "type": "VEC2"
    },
    {
      "bufferView": 0,
      "byteOffset": 22392,
      "componentType": 5125,
      "count": 288,
      "type": "SCALAR"
    },
    {
      "bufferView": 2,
      "byteOffset": 74400,
      "componentType": 5126,
      "count": 127,
      "max": [
        -1505.760986328125,
        51.64723205566406,
        -2284.646240234375
      ],
      "min": [
        -1530.069091796875,
        34.000431060791016,
        -2289.57080078125
      ],
      "type": "VEC3"
    },
    {
      "bufferView": 2,
      "byteOffset": 75924,
      "componentType": 5126,
      "count": 127,
      "max": [
        1.0,
        1.0,
        0.0
      ],
      "min": [
        -1.0,
        -1.0,
        -1.0
      ],
      "type": "VEC3"
    },
    {
      "bufferView": 3,
      "byteOffset": 49600,
      "componentType": 5126,
      "count": 127,
      "max": [
        0.00011433956387918442,
        0.0005008549196645617,
        8.545644959667698e-05,
        1.0
      ],
      "min": [
        -0.9999999403953552,
        -0.00011434321640990674,
        -1.0,
        1.0
      ],
      "type": "VEC4"
    },
    {
      "bufferView": 1,
      "byteOffset": 24800,
      "componentType": 5126,
      "count": 127,
      "max": [
        0.6782626509666443,
        0.9665879607200623
      ],
      "min": [
        0.2879776954650879,
        0.26004457473754883
      ],
      "type": "VEC2"
    },
    {
      "bufferView": 0,
      "byteOffset": 23544,
      "componentType": 5125,
      "count": 255,
      "type": "SCALAR"
    },
    {
      "bufferView": 2,
      "byteOffset": 77448,
      "componentType": 5126,
      "count": 98,
      "max": [
        -1534.673583984375,
        51.64723205566406,
        -2284.56689453125
      ],
      "min": [
        -1548.775390625,
        33.603206634521484,
        -2289.491455078125
      ],
      "type": "VEC3"
    },
    {
      "bufferView": 2,
      "byteOffset": 78624,
      "componentType": 5126,
      "count": 98,
      "max": [
        0.9999536871910095,
        1.0,
        0.0
      ],
      "min": [
        -1.0,
        -1.0,
        -1.0
      ],
      "type": "VEC3"
    },
    {
      "bufferView": 3,
      "byteOffset": 51632,
      "componentType": 5126,
      "count": 98,
      "max": [
        0.00010616714280331507,
        0.09621282666921616,
        7.558687502751127e-05,
        1.0
      ],
      "min": [
        -0.9953622817993164,
        -0.0001030344283208251,
        -1.0,
        1.0
      ],
      "type": "VEC4"
    },
    {
      "bufferView": 1,
      "byteOffset": 25816,
      "componentType": 5126,
      "count": 98,
      "max": [
        0.7703285217285156,
        0.9679774045944214
      ],
      "min": [
        0.36852020025253296,
        0.6896087527275085
      ],
      "type": "VEC2"
    },
    {
      "bufferView": 0,
      "byteOffset": 24564,
      "componentType": 5125,
      "count": 234,
      "type": "SCALAR"
    },
    {
      "bufferView": 2,
      "byteOffset": 79800,
      "componentType": 5126,
      "count": 108,
      "max": [
        -1192.651123046875,
        274.53607177734375,
        -2098.161865234375
      ],
      "min": [
        -1773.270751953125,
        199.53604125976563,
        -2288.654052734375
      ],
      "type": "VEC3"
    },
    {
      "bufferView": 2,
      "byteOffset": 81096,
      "componentType": 5126,
      "count": 108,
      "max": [
        0.7032008171081543,
        1.0,
        1.0
      ],
      "min": [
        -0.7031987905502319,
        -0.9976969957351685,
        -0.9950569868087769
      ],
      "type": "VEC3"
    },
    {
      "bufferView": 3,
      "byteOffset": 53200,
      "componentType": 5126,
      "count": 108,
      "max": [
        0.00010412962728878483,
        1.0,
        0.7466030120849609,
        1.0
      ],
      "min": [
        -1.0,
        -1.0,
        -0.747816264629364,
        1.0
      ],
      "type": "VEC4"
    },
    {
      "bufferView": 1,
      "byteOffset": 26600,
      "componentType": 5126,
      "count": 108,
      "max": [
        1.4257760047912598,
        1.754382848739624
      ],
      "min": [
        -0.9224450588226318,
        1.0815536975860596
      ],
      "type": "VEC2"
    },
    {
      "bufferView": 0,
      "byteOffset": 25500,
      "componentType": 5125,
      "count": 348,
      "type": "SCALAR"
    },
    {
      "bufferView": 2,
      "byteOffset": 82392,
      "componentType": 5126,
      "count": 5705,
      "max": [
        -1722.8131103515625,
        119.61354064941406,
        -2212.412353515625
      ],
      "min": [
        -1868.9248046875,
        1.4943093061447144,
        -2342.106689453125
      ],
      "type": "VEC3"
    },
    {
      "bufferView": 2,
      "byteOffset": 150852,
      "componentType": 5126,
      "count": 5705,
      "max": [
        0.9989576935768127,
        0.9999000430107117,
        0.9995399117469788
      ],
      "min": [
        -0.9989563822746277,
        -0.9999341368675232,
        -0.9997133016586304
      ],
      "type": "VEC3"
    },
    {
      "bufferView": 3,
      "byteOffset": 54928,
      "componentType": 5126,
      "count": 5705,
      "max": [
        0.9999396800994873,
        0.9999240040779114,
        0.9973844885826111,
        1.0
      ],
      "min": [
        -0.9987173080444336,
        -0.9999091625213623,
        -0.9997509717941284,
        -1.0
      ],
      "type": "VEC4"
    },
    {
      "bufferView": 1,
      "byteOffset": 27464,
      "componentType": 5126,
      "count": 5705,
      "max": [
        0.9972073435783386,
        0.9975224733352661
      ],
      "min": [
        0.00515344925224781,
        0.003884442150592804
      ],
      "type": "VEC2"
    },
    {
      "bufferView": 0,
      "byteOffset": 26892,
      "componentType": 5125,
      "count": 17490,
      "type": "SCALAR"
    },
    {
      "bufferView": 2,
      "byteOffset": 219312,
      "componentType": 5126,
      "count": 4,
      "max": [
        -867.669189453125,
        0.0,
        -1839.15234375
      ],
      "min": [
        -2062.005126953125,
        0.0,
        -2751.521728515625
      ],
      "type": "VEC3"
    },
    {
      "bufferView": 2,
      "byteOffset": 219360,
      "componentType": 5126,
      "count": 4,
      "max": [
        0.0,
        1.0,
        0.0
      ],
      "min": [
        0.0,
        1.0,
        0.0
      ],
      "type": "VEC3"
    },
    {
      "bufferView": 3,
      "byteOffset": 146208,
      "componentType": 5126,
      "count": 4,
      "max": [
        1.0,
        0.0,
        7.849998655728996e-05,
        1.0
      ],
      "min": [
        1.0,
        0.0,
        7.837748125893995e-05,
        1.0
      ],
      "type": "VEC4"
    },
    {
      "bufferView": 1,
      "byteOffset": 73104,
      "componentType": 5126,
      "count": 4,
      "max": [
        2.213897705078125,
        2.2697062492370605
      ],
      "min": [
        -1.3791650533676147,
        -1.2825393676757813
      ],
      "type": "VEC2"
    },
    {
      "bufferView": 0,
      "byteOffset": 96852,
      "componentType": 5125,
      "count": 6,
      "type": "SCALAR"
    },
    {
      "bufferView": 2,
      "byteOffset": 219408,
      "componentType": 5126,
      "count": 470,
      "max": [
        -1066.933349609375,
        174.9090576171875,
        -1835.7747802734375
      ],
      "min": [
        -1865.14208984375,
        52.80219268798828,
        -1845.530029296875
      ],
      "type": "VEC3"
    },
    {
      "bufferView": 2,
      "byteOffset": 225048,
      "componentType": 5126,
      "count": 470,
      "max": [
        0.9812424778938293,
        0.9996348023414612,
        0.0
      ],
      "min": [
        -0.9812408089637756,
        -0.9996348023414612,
        -1.0
      ],
      "type": "VEC3"
    },
    {
      "bufferView": 3,
      "byteOffset": 146272,
      "componentType": 5126,
      "count": 470,
      "max": [
        0.46851199865341187,
        0.1757291853427887,
        0.998210072517395,
        1.0
      ],
      "min": [
        -0.5664322376251221,
        -0.9999998807907104,
        -0.9982237815856934,
        1.0
      ],
      "type": "VEC4"
    },
    {
      "bufferView": 1,
      "byteOffset": 73136,
      "componentType": 5126,
      "count": 470,
      "max": [
        1.2145564556121826,
        0.9961416125297546
      ],
      "min": [
        0.0040007829666137695,
        0.004043281078338623
      ],
      "type": "VEC2"
    },
    {
      "bufferView": 0,
      "byteOffset": 96876,
      "componentType": 5125,
      "count": 1230,
      "type": "SCALAR"
    },
    {
      "bufferView": 2,
      "byteOffset": 230688,
      "componentType": 5126,
      "count": 22640,
      "max": [
        -1256.3509521484375,
        115.70762634277344,
        -2492.373046875
      ],
      "min": [
        -1677.2025146484375,
        1.1157523393630981,
        -2745.3232421875
      ],
      "type": "VEC3"
    },
    {
      "bufferView": 2,
      "byteOffset": 502368,
      "componentType": 5126,
      "count": 22640,
      "max": [
        1.0,
        1.0,
        1.0
      ],
      "min": [
        -1.0,
        -1.0,
        -1.0
      ],
      "type": "VEC3"
    },
    {
      "bufferView": 3,
      "byteOffset": 153792,
      "componentType": 5126,
      "count": 22640,
      "max": [
        1.0,
        0.9999679327011108,
        1.0,
        1.0
      ],
      "min": [
        -1.0,
        -1.0,
        -1.0,
        1.0
      ],
      "type": "VEC4"
    },
    {
      "bufferView": 1,
      "byteOffset": 76896,
      "componentType": 5126,
      "count": 22640,
      "max": [
        0.9953488707542419,
        0.5113643407821655
      ],
      "min": [
        0.5905522108078003,
        0.005522005259990692
      ],
      "type": "VEC2"
    },
    {
      "bufferView": 0,
      "byteOffset": 101796,
      "componentType": 5125,
      "count": 60000,
      "type": "SCALAR"
    },
    {
      "bufferView": 2,
      "byteOffset": 774048,
      "componentType": 5126,
      "count": 20,
      "max": [
        -1045.626953125,
        164.9118194580078,
        -1839.176513671875
      ],
      "min": [
        -1886.203125,
        63.6159553527832,
        -1839.176513671875
      ],
      "type": "VEC3"
    },
    {
      "bufferView": 2,
      "byteOffset": 774288,
      "componentType": 5126,
      "count": 20,
      "max": [
        0.0,
        0.0,
        -1.0
      ],
      "min": [
        0.0,
        0.0,
        -1.0
      ],
      "type": "VEC3"
    },
    {
      "bufferView": 3,
      "byteOffset": 516032,
      "componentType": 5126,
      "count": 20,
      "max": [
        -1.0,
        5.4386760893976316e-05,
        0.0,
        1.0
      ],
      "min": [
        -1.0,
        5.337959373719059e-05,
        0.0,
        1.0
      ],
      "type": "VEC4"
    },
    {
      "bufferView": 1,
      "byteOffset": 258016,
      "componentType": 5126,
      "count": 20,
      "max": [
        0.9878016114234924,
        0.3181733787059784
      ],
      "min": [
        0.614406943321228,
        0.20670448243618011
      ],
      "type": "VEC2"
    },
    {
      "bufferView": 0,
      "byteOffset": 341796,
      "componentType": 5125,
      "count": 30,
      "type": "SCALAR"
    },
    {
      "bufferView": 2,
      "byteOffset": 774528,
      "componentType": 5126,
      "count": 328,
      "max": [
        -872.1971435546875,
        199.27392578125,
        -2160.966064453125
      ],
      "min": [
        -2067.064453125,
        108.70989227294922,
        -2313.365966796875
      ],
      "type": "VEC3"
    },
    {
      "bufferView": 2,
      "byteOffset": 778464,
      "componentType": 5126,
      "count": 328,
      "max": [
        1.0,
        1.0,
        1.0
      ],
      "min": [
        -1.0,
        -1.0,
        -1.0
      ],
      "type": "VEC3"
    },
    {
      "bufferView": 3,
      "byteOffset": 516352,
      "componentType": 5126,
      "count": 328,
      "max": [
        0.9997971057891846,
        0.6155018210411072,
        1.0,
        1.0
      ],
      "min": [
        -0.9997971057891846,
        -0.7612816095352173,
        0.0,
        -1.0
      ],
      "type": "VEC4"
    },
    {
      "bufferView": 1,
      "byteOffset": 258176,
      "componentType": 5126,
      "count": 328,
      "max": [
        0.9241970777511597,
        0.5275958776473999
      ],
      "min": [
        0.10512959957122803,
        -0.0005408090655691922
      ],
      "type": "VEC2"
    },
    {
      "bufferView": 0,
      "byteOffset": 341916,
      "componentType": 5125,
      "count": 588,
      "type": "SCALAR"
    },
    {
      "bufferView": 2,
      "byteOffset": 782400,
      "componentType": 5126,
      "count": 72,
      "max": [
        -1102.252197265625,
        185.5654754638672,
        -2407.303466796875
      ],
      "min": [
        -1874.623779296875,
        47.62607192993164,
        -2442.57568359375
      ],
      "type": "VEC3"
    },
    {
      "bufferView": 2,
      "byteOffset": 783264,
      "componentType": 5126,
      "count": 72,
      "max": [
        0.8533405661582947,
        0.17360477149486542,
        0.9114859104156494
      ],
      "min": [
        -0.8519684076309204,
        0.049082107841968536,
        -0.909037709236145
      ],
      "type": "VEC3"
    },
    {
      "bufferView": 3,
      "byteOffset": 521600,
      "componentType": 5126,
      "count": 72,
      "max": [
        0.5157926678657532,
        0.018343321979045868,
        0.8576950430870056,
        1.0
      ],
      "min": [
        -0.912956178188324,
        -0.22141455113887787,
        -0.6123892664909363,
        1.0
      ],
      "type": "VEC4"
    },
    {
      "bufferView": 1,
      "byteOffset": 260800,
      "componentType": 5126,
      "count": 72,
      "max": [
        0.9867218732833862,
        0.9931313991546631
      ],
      "min": [
        0.7588056921958923,
        0.8474838733673096
      ],
      "type": "VEC2"
    },
    {
      "bufferView": 0,
      "byteOffset": 344268,
      "componentType": 5125,
      "count": 108,
      "type": "SCALAR"
    },
    {
      "bufferView": 2,
      "byteOffset": 784128,
      "componentType": 5126,
      "count": 2194,
      "max": [
        -1097.465087890625,
        185.57777404785156,
        -2403.520263671875
      ],
      "min": [
        -1880.7034912109375,
        1.3368797302246094,
        -2446.88818359375
      ],
      "type": "VEC3"
    },
    {
      "bufferView": 2,
      "byteOffset": 810456,
      "componentType": 5126,
      "count": 2194,
      "max": [
        0.9130029082298279,
        1.0,
        0.9090492725372314
      ],
      "min": [
        -0.9130116105079651,
        -1.0,
        -0.9114833474159241
      ],
      "type": "VEC3"
    },
    {
      "bufferView": 3,
      "byteOffset": 522752,
      "componentType": 5126,
      "count": 2194,
      "max": [
        0.864785373210907,
        1.0,
        0.9115359783172607,
        1.0
      ],
      "min": [
        -0.9129626750946045,
        -1.0,
        -0.911537766456604,
        1.0
      ],
      "type": "VEC4"
    },
    {
      "bufferView": 1,
      "byteOffset": 261376,
      "componentType": 5126,
      "count": 2194,
      "max": [
        0.9980456233024597,
        0.7791801691055298
      ],
      "min": [
        0.3004327714443207,
        0.002712514251470566
      ],
      "type": "VEC2"
    },
    {
      "bufferView": 0,
      "byteOffset": 344700,
      "componentType": 5125,
      "count": 3780,
      "type": "SCALAR"
    },
    {
      "bufferView": 2,
      "byteOffset": 836784,
      "componentType": 5126,
      "count": 3450,
      "max": [
        -1287.07177734375,
        156.65625,
        -1997.3525390625
      ],
      "min": [
        -1640.953125,
        2.1309518814086914,
        -2225.21240234375
      ],
      "type": "VEC3"
    },
    {
      "bufferView": 2,
      "byteOffset": 878184,
      "componentType": 5126,
      "count": 3450,
      "max": [
        0.9997893571853638,
        1.0,
        0.9996330142021179
      ],
      "min": [
        -0.9995948672294617,
        -1.0,
        -0.999678909778595
      ],
      "type": "VEC3"
    },
    {
      "bufferView": 3,
      "byteOffset": 557856,
      "componentType": 5126,
      "count": 3450,
      "max": [
        0.9987359046936035,
        0.999921441078186,
        0.9998290538787842,
        1.0
      ],
      "min": [
        -0.9999884963035583,
        -0.9999937415122986,
        -0.9990024566650391,
        1.0
      ],
      "type": "VEC4"
    },
    {
      "bufferView": 1,
      "byteOffset": 278928,
      "componentType": 5126,
      "count": 3450,
      "max": [
        0.9982450008392334,
        0.9969742298126221
      ],
      "min": [
        0.30875855684280396,
        0.5138176083564758
      ],
      "type": "VEC2"
    },
    {
      "bufferView": 0,
      "byteOffset": 359820,
      "componentType": 5125,
      "count": 10458,
      "type": "SCALAR"
    },
    {
      "bufferView": 2,
      "byteOffset": 919584,
      "componentType": 5126,
      "count": 3522,
      "max": [
        -1226.8175048828125,
        158.9552764892578,
        -2101.07861328125
      ],
      "min": [
        -1749.023681640625,
        93.68136596679688,
        -2282.383544921875
      ],
      "type": "VEC3"
    },
    {
      "bufferView": 2,
      "byteOffset": 961848,
      "componentType": 5126,
      "count": 3522,
      "max": [
        0.9998718500137329,
        1.0,
        0.9998704791069031
      ],
      "min": [
        -0.999869704246521,
        -1.0,
        -0.9998700022697449
      ],
      "type": "VEC3"
    },
    {
      "bufferView": 3,
      "byteOffset": 613056,
      "componentType": 5126,
      "count": 3522,
      "max": [
        0.9998283982276917,
        1.0,
        0.9977273344993591,
        1.0
      ],
      "min": [
        -0.9991172552108765,
        -1.0,
        -0.9952450394630432,
        1.0
      ],
      "type": "VEC4"
    },
    {
      "bufferView": 1,
      "byteOffset": 306528,
      "componentType": 5126,
      "count": 3522,
      "max": [
        0.5831331014633179,
        0.6971104145050049
      ],
      "min": [
        0.10343261063098907,
        0.005211204290390015
      ],
      "type": "VEC2"
    },
    {
      "bufferView": 0,
      "byteOffset": 401652,
      "componentType": 5125,
      "count": 7902,
      "type": "SCALAR"
    },
    {
      "bufferView": 2,
      "byteOffset": 1004112,
      "componentType": 5126,
      "count": 4,
      "max": [
        -2054.67138671875,
        196.9151611328125,
        -2163.239501953125
      ],
      "min": [
        -2054.67138671875,
        110.98072814941406,
        -2313.052001953125
      ],
      "type": "VEC3"
    },
    {
      "bufferView": 2,
      "byteOffset": 1004160,
      "componentType": 5126,
      "count": 4,
      "max": [
        1.0,
        0.0,
        0.0
      ],
      "min": [
        1.0,
        0.0,
        0.0
      ],
      "type": "VEC3"
    },
    {
      "bufferView": 3,
      "byteOffset": 669408,
      "componentType": 5126,
      "count": 4,
      "max": [
        0.0,
        2.673389190022135e-06,
        -1.0,
        1.0
      ],
      "min": [
        0.0,
        2.6414238618599484e-06,
        -1.0,
        1.0
      ],
      "type": "VEC4"
    },
    {
      "bufferView": 1,
      "byteOffset": 334704,
      "componentType": 5126,
      "count": 4,
      "max": [
        1.5728495121002197,
        0.2832944393157959
      ],
      "min": [
        1.136789083480835,
        0.030889540910720825
      ],
      "type": "VEC2"
    },
    {
      "bufferView": 0,
      "byteOffset": 433260,
      "componentType": 5125,
      "count": 6,
      "type": "SCALAR"
    },
    {
      "bufferView": 2,
      "byteOffset": 1004208,
      "componentType": 5126,
      "count": 168,
      "max": [
        -867.48974609375,
        250.0,
        -1833.7210693359375
      ],
      "min": [
        -2067.436279296875,
        0.0,
        -2750.81201171875
      ],
      "type": "VEC3"
    },
    {
      "bufferView": 2,
      "byteOffset": 1006224,
      "componentType": 5126,
      "count": 168,
      "max": [
        1.0,
        1.0,
        1.0
      ],
      "min": [
        -1.0,
        -1.0,
        -1.0
      ],
      "type": "VEC3"
    },
    {
      "bufferView": 3,
      "byteOffset": 669472,
      "componentType": 5126,
      "count": 168,
      "max": [
        1.0,
        1.0,
        1.0,
        1.0
      ],
      "min": [
        -1.0,
        -0.00018934431136585772,
        -1.0,
        1.0
      ],
      "type": "VEC4"
    },
    {
      "bufferView": 1,
      "byteOffset": 334736,
      "componentType": 5126,
      "count": 168,
      "max": [
        2.093925952911377,
        0.9530590772628784
      ],
      "min": [
        1.0009284019470215,
        0.17432551085948944
      ],
      "type": "VEC2"
    },
    {
      "bufferView": 0,
      "byteOffset": 433284,
      "componentType": 5125,
      "count": 252,
      "type": "SCALAR"
    },
    {
      "bufferView": 2,
      "byteOffset": 1008240,
      "componentType": 5126,
      "count": 1138,
      "max": [
        -870.0134887695313,
        85.21794128417969,
        -1857.459716796875
      ],
      "min": [
        -2064.899169921875,
        75.07964324951172,
        -2750.811767578125
      ],
      "type": "VEC3"
    },
    {
      "bufferView": 2,
      "byteOffset": 1021896,
      "componentType": 5126,
      "count": 1138,
      "max": [
        0.9749346375465393,
        1.0,
        1.0
      ],
      "min": [
        -0.97493976354599,
        -1.0,
        -1.0
      ],
      "type": "VEC3"
    },
    {
      "bufferView": 3,
      "byteOffset": 672160,
      "componentType": 5126,
      "count": 1138,
      "max": [
        1.0,
        0.9963889718055725,
        0.9999997019767761,
        1.0
      ],
      "min": [
        -1.0,
        -0.9935259222984314,
        -0.9999997615814209,
        1.0
      ],
      "type": "VEC4"
    },
    {
      "bufferView": 1,
      "byteOffset": 336080,
      "componentType": 5126,
      "count": 1138,
      "max": [
        1.041091799736023,
        0.9930183291435242
      ],
      "min": [
        0.008978135883808136,
        0.006005078554153442
      ],
      "type": "VEC2"
    },
    {
      "bufferView": 0,
      "byteOffset": 434292,
      "componentType": 5125,
      "count": 3156,
      "type": "SCALAR"
    }
  ],
  "asset": {
    "extras": {
      "author": "CaseyPozzobon (https://sketchfab.com/CaseyPozzobon)",
      "license": "CC-BY-4.0 (http://creativecommons.org/licenses/by/4.0/)",
      "source": "https://sketchfab.com/3d-models/hospital-reception-environment-3d5b0ae00f9b4e2dad266fa0cd4748cb",
      "title": "Hospital Reception Environment"
    },
    "generator": "Sketchfab-15.18.0",
    "version": "2.0"
  },
  "bufferViews": [
    {
      "buffer": 0,
      "byteLength": 446916,
      "name": "floatBufferViews",
      "target": 34963
    },
    {
      "buffer": 0,
      "byteLength": 345184,
      "byteOffset": 446916,
      "byteStride": 8,
      "name": "floatBufferViews",
      "target": 34962
    },
    {
      "buffer": 0,
      "byteLength": 1035552,
      "byteOffset": 792100,
      "byteStride": 12,
      "name": "floatBufferViews",
      "target": 34962
    },
    {
      "buffer": 0,
      "byteLength": 690368,
      "byteOffset": 1827652,
      "byteStride": 16,
      "name": "floatBufferViews",
      "target": 34962
    }
  ],
  "buffers": [
    {
      "byteLength": 2518020,
      "uri": "scene.bin"
    }
  ],
  "extensionsUsed": [
    "KHR_materials_emissive_strength"
  ],
  "images": [
    {
      "uri": "textures/Modular_props1_baseColor.png"
    },
    {
      "uri": "textures/Modular_props1_metallicRoughness.png"
    },
    {
      "uri": "textures/Modular_props1_emissive.png"
    },
    {
      "uri": "textures/Modular_props1_normal.png"
    },
    {
      "uri": "textures/Tiling_Wall_baseColor.png"
    },
    {
      "uri": "textures/Tiling_Wall_metallicRoughness.png"
    },
    {
      "uri": "textures/Tiling_Wall_normal.png"
    },
    {
      "uri": "textures/Modular_props2_baseColor.png"
    },
    {
      "uri": "textures/Modular_props2_metallicRoughness.png"
    },
    {
      "uri": "textures/Modular_props2_normal.png"
    },
    {
      "uri": "textures/Desk_Wood_baseColor.png"
    },
    {
      "uri": "textures/Desk_Wood_metallicRoughness.png"
    },
    {
      "uri": "textures/Desk_Wood_normal.png"
    },
    {
      "uri": "textures/Desk_Material_baseColor.png"
    },
    {
      "uri": "textures/Desk_Material_metallicRoughness.png"
    },
    {
      "uri": "textures/Desk_Material_emissive.png"
    },
    {
      "uri": "textures/Desk_Material_normal.png"
    },
    {
      "uri": "textures/Wheelchair1_baseColor.png"
    },
    {
      "uri": "textures/Wheelchair1_metallicRoughness.png"
    },
    {
      "uri": "textures/Wheelchair1_normal.png"
    },
    {
      "uri": "textures/Tiling_floor_baseColor.png"
    },
    {
      "uri": "textures/Tiling_floor_metallicRoughness.png"
    },
    {
      "uri": "textures/Tiling_floor_normal.png"
    },
    {
      "uri": "textures/Modular_props3_baseColor.png"
    },
    {
      "uri": "textures/Modular_props3_metallicRoughness.png"
    },
    {
      "uri": "textures/Modular_props3_emissive.png"
    },
    {
      "uri": "textures/Modular_props3_normal.png"
    },
    {
      "uri": "textures/Magazine_Covers_baseColor.png"
    },
    {
      "uri": "textures/Magazine_Covers_normal.png"
    }
  ],
  "materials": [
    {
      "doubleSided": true,
      "emissiveFactor": [
        1.0,
        1.0,
        1.0
      ],
      "emissiveTexture": {
        "index": 2
      },
      "extensions": {
        "KHR_materials_emissive_strength": {
          "emissiveStrength": 3.7638209945020784
        }
      },
      "name": "Modular_props1",
      "normalTexture": {
        "index": 3
      },
      "pbrMetallicRoughness": {
        "baseColorTexture": {
          "index": 0
        },
        "metallicRoughnessTexture": {
          "index": 1
        }
      }
    },
    {
      "doubleSided": true,
      "name": "Tiling_Wall",
      "normalTexture": {
        "index": 6
      },
      "pbrMetallicRoughness": {
        "baseColorTexture": {
          "index": 4
        },
        "metallicRoughnessTexture": {
          "index": 5
        }
      }
    },
    {
      "doubleSided": true,
      "name": "Modular_props2",
      "normalTexture": {
        "index": 9
      },
      "pbrMetallicRoughness": {
        "baseColorTexture": {
          "index": 7
        },
        "metallicRoughnessTexture": {
          "index": 8
        }
      }
    },
    {
      "doubleSided": true,
      "name": "Desk_Wood",
      "normalTexture": {
        "index": 12
      },
      "pbrMetallicRoughness": {
        "baseColorTexture": {
          "index": 10
        },
        "metallicRoughnessTexture": {
          "index": 11
        }
      }
    },
    {
      "doubleSided": true,
      "emissiveFactor": [
        1.0,
        1.0,
        1.0
      ],
      "emissiveTexture": {
        "index": 15
      },
      "extensions": {
        "KHR_materials_emissive_strength": {
          "emissiveStrength": 1.9352439931245502
        }
      },
      "name": "Desk_Material",
      "normalTexture": {
        "index": 16
      },
      "pbrMetallicRoughness": {
        "baseColorTexture": {
          "index": 13
        },
        "metallicRoughnessTexture": {
          "index": 14
        }
      }
    },
    {
      "doubleSided": true,
      "name": "Wheelchair1",
      "normalTexture": {
        "index": 19
      },
      "pbrMetallicRoughness": {
        "baseColorTexture": {
          "index": 17
        },
        "metallicRoughnessTexture": {
          "index": 18
        }
      }
    },
    {
      "doubleSided": true,
      "name": "Tiling_floor",
      "normalTexture": {
        "index": 22
      },
      "pbrMetallicRoughness": {
        "baseColorTexture": {
          "index": 20
        },
        "metallicRoughnessTexture": {
          "index": 21
        }
      }
    },
    {
      "doubleSided": true,
      "emissiveFactor": [
        0.8380977922980336,
        0.8380977922980336,
        0.8380977922980336
      ],
      "emissiveTexture": {
        "index": 25
      },
      "name": "Modular_props3",
      "normalTexture": {
        "index": 26
      },
      "pbrMetallicRoughness": {
        "baseColorTexture": {
          "index": 23
        },
        "metallicRoughnessTexture": {
          "index": 24
        }
      }
    },
    {
      "doubleSided": true,
      "name": "Magazine_Covers",
      "normalTexture": {
        "index": 28
      },
      "pbrMetallicRoughness": {
        "baseColorTexture": {
          "index": 27
        },
        "metallicFactor": 0.0,
        "roughnessFactor": 0.6
      }
    }
  ],
  "meshes": [
    {
      "name": "Wet_Floor_Sign_Modular_props1_0",
      "primitives": [
        {
          "attributes": {
            "NORMAL": 1,
            "POSITION": 0,
            "TANGENT": 2,
            "TEXCOORD_0": 3
          },
          "indices": 4,
          "material": 0,
          "mode": 4
        }
      ]
    },
    {
      "name": "Wall_and_Door1_Tiling_Wall_0",
      "primitives": [
        {
          "attributes": {
            "NORMAL": 6,
            "POSITION": 5,
            "TANGENT": 7,
            "TEXCOORD_0": 8
          },
          "indices": 9,
          "material": 1,
          "mode": 4
        }
      ]
    },
    {
      "name": "Wall_and_Door1_Modular_props2_0",
      "primitives": [
        {
          "attributes": {
            "NORMAL": 11,
            "POSITION": 10,
            "TANGENT": 12,
            "TEXCOORD_0": 13
          },
          "indices": 14,
          "material": 2,
          "mode": 4
        }
      ]
    },
    {
      "name": "Wall_and_Door_Tiling_Wall_0",
      "primitives": [
        {
          "attributes": {
            "NORMAL": 16,
            "POSITION": 15,
            "TANGENT": 17,
            "TEXCOORD_0": 18
          },
          "indices": 19,
          "material": 1,
          "mode": 4
        }
      ]
    },
    {
      "name": "Wall_and_Door_Modular_props2_0",
      "primitives": [
        {
          "attributes": {
            "NORMAL": 21,
            "POSITION": 20,
            "TANGENT": 22,
            "TEXCOORD_0": 23
          },
          "indices": 24,
          "material": 2,
          "mode": 4
        }
      ]
    },
    {
      "name": "polySurface83_Desk_Wood_0",
      "primitives": [
        {
          "attributes": {
            "NORMAL": 26,
            "POSITION": 25,
            "TANGENT": 27,
            "TEXCOORD_0": 28
          },
          "indices": 29,
          "material": 3,
          "mode": 4
        }
      ]
    },
    {
      "name": "polySurface83_Desk_Material_0",
      "primitives": [
        {
          "attributes": {
            "NORMAL": 31,
            "POSITION": 30,
            "TANGENT": 32,
            "TEXCOORD_0": 33
          },
          "indices": 34,
          "material": 4,
          "mode": 4
        }
      ]
    },
    {
      "name": "polySurface84_Desk_Material_0",
      "primitives": [
        {
          "attributes": {
            "NORMAL": 36,
            "POSITION": 35,
            "TANGENT": 37,
            "TEXCOORD_0": 38
          },
          "indices": 39,
          "material": 4,
          "mode": 4
        }
      ]
    },
    {
      "name": "polySurface85_Desk_Material_0",
      "primitives": [
        {
          "attributes": {
            "NORMAL": 41,
            "POSITION": 40,
            "TANGENT": 42,
            "TEXCOORD_0": 43
          },
          "indices": 44,
          "material": 4,
          "mode": 4
        }
      ]
    },
    {
      "name": "polySurface86_Desk_Material_0",
      "primitives": [
        {
          "attributes": {
            "NORMAL": 46,
            "POSITION": 45,
            "TANGENT": 47,
            "TEXCOORD_0": 48
          },
          "indices": 49,
          "material": 4,
          "mode": 4
        }
      ]
    },
    {
      "name": "polySurface87_Desk_Material_0",
      "primitives": [
        {
          "attributes": {
            "NORMAL": 51,
            "POSITION": 50,
            "TANGENT": 52,
            "TEXCOORD_0": 53
          },
          "indices": 54,
          "material": 4,
          "mode": 4
        }
      ]
    },
    {
      "name": "polySurface88_Desk_Material_0",
      "primitives": [
        {
          "attributes": {
            "NORMAL": 56,
            "POSITION": 55,
            "TANGENT": 57,
            "TEXCOORD_0": 58
          },
          "indices": 59,
          "material": 4,
          "mode": 4
        }
      ]
    },
    {
      "name": "polySurface89_Desk_Material_0",
      "primitives": [
        {
          "attributes": {
            "NORMAL": 61,
            "POSITION": 60,
            "TANGENT": 62,
            "TEXCOORD_0": 63
          },
          "indices": 64,
          "material": 4,
          "mode": 4
        }
      ]
    },
    {
      "name": "polySurface90_Desk_Material_0",
      "primitives": [
        {
          "attributes": {
            "NORMAL": 66,
            "POSITION": 65,
            "TANGENT": 67,
            "TEXCOORD_0": 68
          },
          "indices": 69,
          "material": 4,
          "mode": 4
        }
      ]
    },
    {
      "name": "polySurface91_Desk_Material_0",
      "primitives": [
        {
          "attributes": {
            "NORMAL": 71,
            "POSITION": 70,
            "TANGENT": 72,
            "TEXCOORD_0": 73
          },
          "indices": 74,
          "material": 4,
          "mode": 4
        }
      ]
    },
    {
      "name": "polySurface92_Desk_Material_0",
      "primitives": [
        {
          "attributes": {
            "NORMAL": 76,
            "POSITION": 75,
            "TANGENT": 77,
            "TEXCOORD_0": 78
          },
          "indices": 79,
          "material": 4,
          "mode": 4
        }
      ]
    },
    {
      "name": "polySurface93_Desk_Material_0",
      "primitives": [
        {
          "attributes": {
            "NORMAL": 81,
            "POSITION": 80,
            "TANGENT": 82,
            "TEXCOORD_0": 83
          },
          "indices": 84,
          "material": 4,
          "mode": 4
        }
      ]
    },
    {
      "name": "polySurface94_Desk_Material_0",
      "primitives": [
        {
          "attributes": {
            "NORMAL": 86,
            "POSITION": 85,
            "TANGENT": 87,
            "TEXCOORD_0": 88
          },
          "indices": 89,
          "material": 4,
          "mode": 4
        }
      ]
    },
    {
      "name": "polySurface95_Desk_Material_0",
      "primitives": [
        {
          "attributes": {
            "NORMAL": 91,
            "POSITION": 90,
            "TANGENT": 92,
            "TEXCOORD_0": 93
          },
          "indices": 94,
          "material": 4,
          "mode": 4
        }
      ]
    },
    {
      "name": "polySurface96_Desk_Material_0",
      "primitives": [
        {
          "attributes": {
            "NORMAL": 96,
            "POSITION": 95,
            "TANGENT": 97,
            "TEXCOORD_0": 98
          },
          "indices": 99,
          "material": 4,
          "mode": 4
        }
      ]
    },
    {
      "name": "polySurface97_Desk_Material_0",
      "primitives": [
        {
          "attributes": {
            "NORMAL": 101,
            "POSITION": 100,
            "TANGENT": 102,
            "TEXCOORD_0": 103
          },
          "indices": 104,
          "material": 4,
          "mode": 4
        }
      ]
    },
    {
      "name": "polySurface98_Desk_Material_0",
      "primitives": [
        {
          "attributes": {
            "NORMAL": 106,
            "POSITION": 105,
            "TANGENT": 107,
            "TEXCOORD_0": 108
          },
          "indices": 109,
          "material": 4,
          "mode": 4
        }
      ]
    },
    {
      "name": "polySurface99_Desk_Material_0",
      "primitives": [
        {
          "attributes": {
            "NORMAL": 111,
            "POSITION": 110,
            "TANGENT": 112,
            "TEXCOORD_0": 113
          },
          "indices": 114,
          "material": 4,
          "mode": 4
        }
      ]
    },
    {
      "name": "polySurface100_Desk_Material_0",
      "primitives": [
        {
          "attributes": {
            "NORMAL": 116,
            "POSITION": 115,
            "TANGENT": 117,
            "TEXCOORD_0": 118
          },
          "indices": 119,
          "material": 4,
          "mode": 4
        }
      ]
    },
    {
      "name": "polySurface101_Desk_Material_0",
      "primitives": [
        {
          "attributes": {
            "NORMAL": 121,
            "POSITION": 120,
            "TANGENT": 122,
            "TEXCOORD_0": 123
          },
          "indices": 124,
          "material": 4,
          "mode": 4
        }
      ]
    },
    {
      "name": "polySurface102_Desk_Material_0",
      "primitives": [
        {
          "attributes": {
            "NORMAL": 126,
            "POSITION": 125,
            "TANGENT": 127,
            "TEXCOORD_0": 128
          },
          "indices": 129,
          "material": 4,
          "mode": 4
        }
      ]
    },
    {
      "name": "polySurface103_Desk_Wood_0",
      "primitives": [
        {
          "attributes": {
            "NORMAL": 131,
            "POSITION": 130,
            "TANGENT": 132,
            "TEXCOORD_0": 133
          },
          "indices": 134,
          "material": 3,
          "mode": 4
        }
      ]
    },
    {
      "name": "Wheelchair_Wheelchair1_0",
      "primitives": [
        {
          "attributes": {
            "NORMAL": 136,
            "POSITION": 135,
            "TANGENT": 137,
            "TEXCOORD_0": 138
          },
          "indices": 139,
          "material": 5,
          "mode": 4
        }
      ]
    },
    {
      "name": "Floor_Tiling_floor_0",
      "primitives": [
        {
          "attributes": {
            "NORMAL": 141,
            "POSITION": 140,
            "TANGENT": 142,
            "TEXCOORD_0": 143
          },
          "indices": 144,
          "material": 6,
          "mode": 4
        }
      ]
    },
    {
      "name": "Direction_Sign_Modular_props3_0",
      "primitives": [
        {
          "attributes": {
            "NORMAL": 146,
            "POSITION": 145,
            "TANGENT": 147,
            "TEXCOORD_0": 148
          },
          "indices": 149,
          "material": 7,
          "mode": 4
        }
      ]
    },
    {
      "name": "Patient_Chair_Modular_props1_0",
      "primitives": [
        {
          "attributes": {
            "NORMAL": 151,
            "POSITION": 150,
            "TANGENT": 152,
            "TEXCOORD_0": 153
          },
          "indices": 154,
          "material": 0,
          "mode": 4
        }
      ]
    },
    {
      "name": "Wall_Line_Modular_props3_0",
      "primitives": [
        {
          "attributes": {
            "NORMAL": 156,
            "POSITION": 155,
            "TANGENT": 157,
            "TEXCOORD_0": 158
          },
          "indices": 159,
          "material": 7,
          "mode": 4
        }
      ]
    },
    {
      "name": "TV_Modular_props3_0",
      "primitives": [
        {
          "attributes": {
            "NORMAL": 161,
            "POSITION": 160,
            "TANGENT": 162,
            "TEXCOORD_0": 163
          },
          "indices": 164,
          "material": 7,
          "mode": 4
        }
      ]
    },
    {
      "name": "Magazine_Magazine_Covers_0",
      "primitives": [
        {
          "attributes": {
            "NORMAL": 166,
            "POSITION": 165,
            "TANGENT": 167,
            "TEXCOORD_0": 168
          },
          "indices": 169,
          "material": 8,
          "mode": 4
        }
      ]
    },
    {
      "name": "Magazine_Modular_props2_0",
      "primitives": [
        {
          "attributes": {
            "NORMAL": 171,
            "POSITION": 170,
            "TANGENT": 172,
            "TEXCOORD_0": 173
          },
          "indices": 174,
          "material": 2,
          "mode": 4
        }
      ]
    },
    {
      "name": "Office_Chair_Modular_props1_0",
      "primitives": [
        {
          "attributes": {
            "NORMAL": 176,
            "POSITION": 175,
            "TANGENT": 177,
            "TEXCOORD_0": 178
          },
          "indices": 179,
          "material": 0,
          "mode": 4
        }
      ]
    },
    {
      "name": "ComputerAndMonitor_Modular_props1_0",
      "primitives": [
        {
          "attributes": {
            "NORMAL": 181,
            "POSITION": 180,
            "TANGENT": 182,
            "TEXCOORD_0": 183
          },
          "indices": 184,
          "material": 0,
          "mode": 4
        }
      ]
    },
    {
      "name": "FlippedTVScreen_Modular_props3_0",
      "primitives": [
        {
          "attributes": {
            "NORMAL": 186,
            "POSITION": 185,
            "TANGENT": 187,
            "TEXCOORD_0": 188
          },
          "indices": 189,
          "material": 7,
          "mode": 4
        }
      ]
    },
    {
      "name": "Wall_Tiling_Wall_0",
      "primitives": [
        {
          "attributes": {
            "NORMAL": 191,
            "POSITION": 190,
            "TANGENT": 192,
            "TEXCOORD_0": 193
          },
          "indices": 194,
          "material": 1,
          "mode": 4
        }
      ]
    },
    {
      "name": "polySurface82_Modular_props1_0",
      "primitives": [
        {
          "attributes": {
            "NORMAL": 196,
            "POSITION": 195,
            "TANGENT": 197,
            "TEXCOORD_0": 198
          },
          "indices": 199,
          "material": 0,
          "mode": 4
        }
      ]
    }
  ],
  "nodes": [
    {
      "children": [
        1
      ],
      "matrix": [
        1.0,
        0.0,
        0.0,
        0.0,
        0.0,
        2.220446049250313e-16,
        -1.0,
        0.0,
        0.0,
        1.0,
        2.220446049250313e-16,
        0.0,
        0.0,
        0.0,
        0.0,
        1.0
      ],
      "name": "Sketchfab_model"
    },
    {
      "children": [
        2
      ],
      "matrix": [
        0.009999999776482582,
        0.0,
        0.0,
        0.0,
        0.0,
        0.0,
        0.009999999776482582,
        0.0,
        0.0,
        -0.009999999776482582,
        0.0,
        0.0,
        0.0,
        0.0,
        0.0,
        1.0
      ],
      "name": "df462a0d00754df58797f093003cb573.fbx"
    },
    {
      "children": [
        3,
        5,
        12,
        56,
        58,
        60,
        62,
        64,
        66,
        68,
        71,
        73,
        75,
        77,
        79
      ],
      "name": "RootNode"
    },
    {
      "children": [
        4
      ],
      "name": "Wet_Floor_Sign"
    },
    {
      "mesh": 0,
      "name": "Wet_Floor_Sign_Modular_props1_0"
    },
    {
      "children": [
        6,
        9
      ],
      "name": "Wall_with_door"
    },
    {
      "children": [
        7,
        8
      ],
      "name": "Wall_and_Door1"
    },
    {
      "mesh": 1,
      "name": "Wall_and_Door1_Tiling_Wall_0"
    },
    {
      "mesh": 2,
      "name": "Wall_and_Door1_Modular_props2_0"
    },
    {
      "children": [
        10,
        11
      ],
      "matrix": [
        1.0,
        0.0,
        0.0,
        0.0,
        0.0,
        1.0,
        0.0,
        0.0,
        0.0,
        0.0,
        1.0,
        0.0,
        6.06884765625,
        -2.8673007488250732,
        -3.376953125,
        1.0
      ],
      "name": "Wall_and_Door"
    },
    {
      "mesh": 3,
      "name": "Wall_and_Door_Tiling_Wall_0"
    },
    {
      "mesh": 4,
      "name": "Wall_and_Door_Modular_props2_0"
    },
    {
      "children": [
        13,
        16,
        18,
        20,
        22,
        24,
        26,
        28,
        30,
        32,
        34,
        36,
        38,
        40,
        42,
        44,
        46,
        48,
        50,
        52,
        54
      ],
      "name": "Hero_Desk"
    },
    {
      "children": [
        14,
        15
      ],
      "name": "polySurface83"
    },
    {
      "mesh": 5,
      "name": "polySurface83_Desk_Wood_0"
    },
    {
      "mesh": 6,
      "name": "polySurface83_Desk_Material_0"
    },
    {
      "children": [
        17
      ],
      "matrix": [
        1.0,
        0.0,
        0.0,
        0.0,
        0.0,
        1.0,
        0.0,
        0.0,
        0.0,
        0.0,
        1.0,
        0.0,
        0.0,
        0.0,
        1.4814785718917847,
        1.0
      ],
      "name": "polySurface84"
    },
    {
      "mesh": 7,
      "name": "polySurface84_Desk_Material_0"
    },
    {
      "children": [
        19
      ],
      "matrix": [
        1.0,
        0.0,
        0.0,
        0.0,
        0.0,
        1.0,
        0.0,
        0.0,
        0.0,
        0.0,
        1.0,
        0.0,
        0.0,
        0.0,
        1.4814785718917847,
        1.0
      ],
      "name": "polySurface85"
    },
    {
      "mesh": 8,
      "name": "polySurface85_Desk_Material_0"
    },
    {
      "children": [
        21
      ],
      "matrix": [
        1.0,
        0.0,
        0.0,
        0.0,
        0.0,
        1.0,
        0.0,
        0.0,
        0.0,
        0.0,
        1.0,
        0.0,
        0.0,
        0.0,
        1.4814785718917847,
        1.0
      ],
      "name": "polySurface86"
    },
    {
      "mesh": 9,
      "name": "polySurface86_Desk_Material_0"
    },
    {
      "children": [
        23
      ],
      "matrix": [
        1.0,
        0.0,
        0.0,
        0.0,
        0.0,
        1.0,
        0.0,
        0.0,
        0.0,
        0.0,
        1.0,
        0.0,
        0.0,
        0.0,
        1.4814785718917847,
        1.0
      ],
      "name": "polySurface87"
    },
    {
      "mesh": 10,
      "name": "polySurface87_Desk_Material_0"
    },
    {
      "children": [
        25
      ],
      "matrix": [
        1.0,
        0.0,
        0.0,
        0.0,
        0.0,
        1.0,
        0.0,
        0.0,
        0.0,
        0.0,
        1.0,
        0.0,
        0.0,
        0.0,
        1.4814785718917847,
        1.0
      ],
      "name": "polySurface88"
    },
    {
      "mesh": 11,
      "name": "polySurface88_Desk_Material_0"
    },
    {
      "children": [
        27
      ],
      "name": "polySurface89"
    },
    {
      "mesh": 12,
      "name": "polySurface89_Desk_Material_0"
    },
    {
      "children": [
        29
      ],
      "name": "polySurface90"
    },
    {
      "mesh": 13,
      "name": "polySurface90_Desk_Material_0"
    },
    {
      "children": [
        31
      ],
      "matrix": [
        1.0,
        0.0,
        0.0,
        0.0,
        0.0,
        1.0,
        0.0,
        0.0,
        0.0,
        0.0,
        1.0,
        0.0,
        0.0,
        0.0,
        1.4814785718917847,
        1.0
      ],
      "name": "polySurface91"
    },
    {
      "mesh": 14,
      "name": "polySurface91_Desk_Material_0"
    },
    {
      "children": [
        33
      ],
      "matrix": [
        1.0,
        0.0,
        0.0,
        0.0,
        0.0,
        1.0,
        0.0,
        0.0,
        0.0,
        0.0,
        1.0,
        0.0,
        0.0,
        0.0,
        1.4814785718917847,
        1.0
      ],
      "name": "polySurface92"
    },
    {
      "mesh": 15,
      "name": "polySurface92_Desk_Material_0"
    },
    {
      "children": [
        35
      ],
      "matrix": [
        1.0,
        0.0,
        0.0,
        0.0,
        0.0,
        1.0,
        0.0,
        0.0,
        0.0,
        0.0,
        1.0,
        0.0,
        0.0,
        0.0,
        1.4814785718917847,
        1.0
      ],
      "name": "polySurface93"
    },
    {
      "mesh": 16,
      "name": "polySurface93_Desk_Material_0"
    },
    {
      "children": [
        37
      ],
      "matrix": [
        1.0,
        0.0,
        0.0,
        0.0,
        0.0,
        1.0,
        0.0,
        0.0,
        0.0,
        0.0,
        1.0,
        0.0,
        0.0,
        0.0,
        1.4814785718917847,
        1.0
      ],
      "name": "polySurface94"
    },
    {
      "mesh": 17,
      "name": "polySurface94_Desk_Material_0"
    },
    {
      "children": [
        39
      ],
      "matrix": [
        1.0,
        0.0,
        0.0,
        0.0,
        0.0,
        1.0,
        0.0,
        0.0,
        0.0,
        0.0,
        1.0,
        0.0,
        0.0,
        0.0,
        1.4814785718917847,
        1.0
      ],
      "name": "polySurface95"
    },
    {
      "mesh": 18,
      "name": "polySurface95_Desk_Material_0"
    },
    {
      "children": [
        41
      ],
      "matrix": [
        1.0,
        0.0,
        0.0,
        0.0,
        0.0,
        1.0,
        0.0,
        0.0,
        0.0,
        0.0,
        1.0,
        0.0,
        0.0,
        0.0,
        1.4814785718917847,
        1.0
      ],
      "name": "polySurface96"
    },
    {
      "mesh": 19,
      "name": "polySurface96_Desk_Material_0"
    },
    {
      "children": [
        43
      ],
      "matrix": [
        1.0,
        0.0,
        0.0,
        0.0,
        0.0,
        1.0,
        0.0,
        0.0,
        0.0,
        0.0,
        1.0,
        0.0,
        0.0,
        0.0,
        1.4814785718917847,
        1.0
      ],
      "name": "polySurface97"
    },
    {
      "mesh": 20,
      "name": "polySurface97_Desk_Material_0"
    },
    {
      "children": [
        45
      ],
      "matrix": [
        1.0,
        0.0,
        0.0,
        0.0,
        0.0,
        1.0,
        0.0,
        0.0,
        0.0,
        0.0,
        1.0,
        0.0,
        0.0,
        0.0,
        1.4814785718917847,
        1.0
      ],
      "name": "polySurface98"
    },
    {
      "mesh": 21,
      "name": "polySurface98_Desk_Material_0"
    },
    {
      "children": [
        47
      ],
      "matrix": [
        1.0,
        0.0,
        0.0,
        0.0,
        0.0,
        1.0,
        0.0,
        0.0,
        0.0,
        0.0,
        1.0,
        0.0,
        0.0,
        0.0,
        1.4814785718917847,
        1.0
      ],
      "name": "polySurface99"
    },
    {
      "mesh": 22,
      "name": "polySurface99_Desk_Material_0"
    },
    {
      "children": [
        49
      ],
      "matrix": [
        1.0,
        0.0,
        0.0,
        0.0,
        0.0,
        1.0,
        0.0,
        0.0,
        0.0,
        0.0,
        1.0,
        0.0,
        0.0,
        0.0,
        1.4814785718917847,
        1.0
      ],
      "name": "polySurface100"
    },
    {
      "mesh": 23,
      "name": "polySurface100_Desk_Material_0"
    },
    {
      "children": [
        51
      ],
      "matrix": [
        1.0,
        0.0,
        0.0,
        0.0,
        0.0,
        1.0,
        0.0,
        0.0,
        0.0,
        0.0,
        1.0,
        0.0,
        0.0,
        0.0,
        1.4814785718917847,
        1.0
      ],
      "name": "polySurface101"
    },
    {
      "mesh": 24,
      "name": "polySurface101_Desk_Material_0"
    },
    {
      "children": [
        53
      ],
      "matrix": [
        1.0,
        0.0,
        0.0,
        0.0,
        0.0,
        1.0,
        0.0,
        0.0,
        0.0,
        0.0,
        1.0,
        0.0,
        0.0,
        0.0,
        1.4814785718917847,
        1.0
      ],
      "name": "polySurface102"
    },
    {
      "mesh": 25,
      "name": "polySurface102_Desk_Material_0"
    },
    {
      "children": [
        55
      ],
      "name": "polySurface103"
    },
    {
      "mesh": 26,
      "name": "polySurface103_Desk_Wood_0"
    },
    {
      "children": [
        57
      ],
      "name": "Wheelchair"
    },
    {
      "mesh": 27,
      "name": "Wheelchair_Wheelchair1_0"
    },
    {
      "children": [
        59
      ],
      "name": "Floor"
    },
    {
      "mesh": 28,
      "name": "Floor_Tiling_floor_0"
    },
    {
      "children": [
        61
      ],
      "name": "Direction_Sign"
    },
    {
      "mesh": 29,
      "name": "Direction_Sign_Modular_props3_0"
    },
    {
      "children": [
        63
      ],
      "name": "Patient_Chair"
    },
    {
      "mesh": 30,
      "name": "Patient_Chair_Modular_props1_0"
    },
    {
      "children": [
        65
      ],
      "name": "Wall_Line"
    },
    {
      "mesh": 31,
      "name": "Wall_Line_Modular_props3_0"
    },
    {
      "children": [
        67
      ],
      "name": "TV"
    },
    {
      "mesh": 32,
      "name": "TV_Modular_props3_0"
    },
    {
      "children": [
        69,
        70
      ],
      "name": "Magazine"
    },
    {
      "mesh": 33,
      "name": "Magazine_Magazine_Covers_0"
    },
    {
      "mesh": 34,
      "name": "Magazine_Modular_props2_0"
    },
    {
      "children": [
        72
      ],
      "name": "Office_Chair"
    },
    {
      "mesh": 35,
      "name": "Office_Chair_Modular_props1_0"
    },
    {
      "children": [
        74
      ],
      "name": "ComputerAndMonitor"
    },
    {
      "mesh": 36,
      "name": "ComputerAndMonitor_Modular_props1_0"
    },
    {
      "children": [
        76
      ],
      "name": "FlippedTVScreen"
    },
    {
      "mesh": 37,
      "name": "FlippedTVScreen_Modular_props3_0"
    },
    {
      "children": [
        78
      ],
      "name": "Wall"
    },
    {
      "mesh": 38,
      "name": "Wall_Tiling_Wall_0"
    },
    {
      "children": [
        80
      ],
      "name": "polySurface82"
    },
    {
      "mesh": 39,
      "name": "polySurface82_Modular_props1_0"
    }
  ],
  "samplers": [
    {
      "magFilter": 9729,
      "minFilter": 9987,
      "wrapS": 10497,
      "wrapT": 10497
    }
  ],
  "scene": 0,
  "scenes": [
    {
      "name": "Sketchfab_Scene",
      "nodes": [
        0
      ]
    }
  ],
  "textures": [
    {
      "sampler": 0,
      "source": 0
    },
    {
      "sampler": 0,
      "source": 1
    },
    {
      "sampler": 0,
      "source": 2
    },
    {
      "sampler": 0,
      "source": 3
    },
    {
      "sampler": 0,
      "source": 4
    },
    {
      "sampler": 0,
      "source": 5
    },
    {
      "sampler": 0,
      "source": 6
    },
    {
      "sampler": 0,
      "source": 7
    },
    {
      "sampler": 0,
      "source": 8
    },
    {
      "sampler": 0,
      "source": 9
    },
    {
      "sampler": 0,
      "source": 10
    },
    {
      "sampler": 0,
      "source": 11
    },
    {
      "sampler": 0,
      "source": 12
    },
    {
      "sampler": 0,
      "source": 13
    },
    {
      "sampler": 0,
      "source": 14
    },
    {
      "sampler": 0,
      "source": 15
    },
    {
      "sampler": 0,
      "source": 16
    },
    {
      "sampler": 0,
      "source": 17
    },
    {
      "sampler": 0,
      "source": 18
    },
    {
      "sampler": 0,
      "source": 19
    },
    {
      "sampler": 0,
      "source": 20
    },
    {
      "sampler": 0,
      "source": 21
    },
    {
      "sampler": 0,
      "source": 22
    },
    {
      "sampler": 0,
      "source": 23
    },
    {
      "sampler": 0,
      "source": 24
    },
    {
      "sampler": 0,
      "source": 25
    },
    {
      "sampler": 0,
      "source": 26
    },
    {
      "sampler": 0,
      "source": 27
    },
    {
      "sampler": 0,
      "source": 28
    }
  ]
}
